<?xml version="1.0" encoding="utf-8"?>
<svg version="1.0" width="256.000000pt" height="256.000000pt" viewBox="74.138 26.352 59.654 45.468" preserveAspectRatio="xMidYMid meet" xmlns="http://www.w3.org/2000/svg">
  <g transform="matrix(0.020625, 0, 0, -0.017862, 76.838806, 68.991531)" fill="#000000" stroke="none" style="">
    <path d="M1212 2508 c-7 -7 -12 -30 -12 -52 0 -40 -1 -41 -55 -62 l-54 -21 -27 28 c-15 16 -35 29 -44 29 -19 0 -210 -190 -210 -210 0 -8 13 -28 29 -45 l28 -30 -23 -52 c-23 -51 -25 -53 -62 -53 -45 0 -62 -14 -62 -51 l0 -28 -225 -3 -225 -3 -32 -33 -33 -32 -3 -724 -2 -723 -46 -6 c-34 -3 -55 -13 -78 -36 -30 -31 -31 -33 -31 -129 0 -85 3 -102 24 -135 13 -21 42 -50 64 -65 l41 -27 1106 0 1106 0 41 27 c22 15 51 44 64 65 21 33 24 50 24 135 0 96 -1 98 -31 129 -23 23 -44 33 -78 36 l-46 6 -2 723 -3 724 -33 32 -32 33 -145 3 -145 3 0 28 c0 37 -17 51 -62 51 -37 0 -39 2 -62 53 l-23 52 28 30 c16 17 29 38 29 46 0 19 -191 209 -210 209 -8 0 -28 -13 -45 -29 l-30 -28 -52 23 c-51 23 -53 25 -53 62 0 21 -5 43 -12 50 -8 8 -56 12 -148 12 -92 0 -140 -4 -148 -12z m228 -100 c0 -41 8 -53 40 -63 14 -4 55 -21 93 -38 l68 -30 30 29 30 28 56 -57 57 -56 -28 -30 -29 -30 30 -68 c17 -38 34 -79 38 -93 10 -32 22 -40 63 -40 l32 0 0 -80 0 -80 -32 0 c-41 0 -53 -8 -63 -40 -4 -14 -21 -55 -38 -93 l-30 -68 29 -30 28 -30 -57 -56 -56 -57 -31 29 -30 29 -57 -28 c-54 -26 -58 -27 -70 -10 -24 33 -15 52 46 88 76 46 125 102 165 185 28 60 31 75 31 161 0 86 -3 101 -32 162 -44 93 -100 151 -191 196 -72 35 -81 37 -172 37 -91 0 -100 -2 -172 -37 -91 -45 -148 -103 -191 -196 -30 -63 -31 -74 -34 -201 -1 -73 -4 -135 -5 -136 -2 -2 -12 -5 -22 -7 -15 -2 -22 7 -34 42 -18 53 -26 60 -69 60 l-33 0 0 80 0 80 33 0 c40 0 52 8 62 40 4 14 21 55 38 93 l30 68 -29 30 -28 30 57 56 56 57 30 -28 30 -29 68 30 c38 17 79 34 93 38 32 10 40 22 40 63 l0 32 80 0 80 0 0 -32z m56 -238 c62 -31 123 -91 154 -155 20 -41 25 -65 24 -135 0 -72 -4 -93 -27 -137 -27 -52 -80 -113 -115 -132 -15 -8 -27 -1 -68 40 -52 53 -80 61 -109 29 -23 -25 -25 -25 -96 3 -56 21 -59 23 -59 58 0 49 -15 59 -86 59 -71 0 -74 4 -74 80 0 134 95 264 224 306 61 20 172 12 232 -16z m-776 -330 l0 -40 -168 0 c-117 0 -172 -4 -180 -12 -17 -17 -17 -1239 0 -1256 17 -17 1799 -17 1816 0 17 17 17 1239 0 1256 -8 8 -45 12 -100 12 l-88 0 0 40 0 40 128 0 c86 0 132 -4 140 -12 9 -9 12 -183 12 -720 l0 -708 -1000 0 -1000 0 0 708 c0 537 3 711 12 720 9 9 72 12 220 12 l208 0 0 -40z m114 -146 c9 -36 0 -41 -27 -16 -13 12 -32 22 -42 22 -27 0 -145 -119 -145 -146 0 -11 9 -29 20 -39 25 -23 25 -25 -2 -96 -22 -56 -24 -59 -59 -59 -53 0 -59 -12 -59 -120 0 -108 6 -120 60 -120 34 0 36 -3 58 -59 27 -71 27 -73 2 -96 -33 -30 -24 -55 42 -122 67 -67 93 -76 123 -43 23 25 25 25 96 -2 56 -22 59 -24 59 -58 0 -54 12 -60 120 -60 108 0 120 6 120 60 0 34 3 36 59 58 71 27 73 27 96 2 30 -33 55 -24 122 42 67 67 76 93 43 123 -25 23 -25 25 3 96 21 56 23 59 57 59 54 0 60 12 60 120 0 101 -7 120 -45 120 -18 1 -18 2 5 15 23 13 27 11 55 -16 17 -16 37 -29 45 -29 19 0 210 190 210 209 0 8 -13 29 -29 46 l-28 30 23 53 24 52 110 0 110 0 0 -560 0 -560 -840 0 -840 0 0 560 0 560 194 0 194 0 6 -26z m288 -11 c3 -36 5 -38 63 -58 33 -12 80 -31 104 -44 l44 -23 29 22 30 22 25 -25 25 -25 -22 -30 -22 -29 23 -44 c13 -24 32 -71 44 -104 20 -58 22 -60 58 -63 36 -3 37 -4 37 -42 0 -38 -1 -39 -37 -42 -36 -3 -38 -5 -58 -63 -12 -33 -31 -80 -44 -104 l-23 -44 22 -29 22 -30 -25 -25 -25 -25 -30 22 -29 22 -44 -23 c-24 -13 -71 -32 -104 -44 -58 -20 -60 -22 -63 -58 -3 -36 -4 -37 -42 -37 -38 0 -39 1 -42 37 -3 36 -5 38 -63 58 -33 12 -80 31 -104 44 l-44 23 -29 -22 -30 -22 -25 25 -25 25 22 30 22 29 -23 44 c-13 24 -32 71 -44 104 -20 58 -22 60 -58 63 -36 3 -37 4 -37 42 0 38 1 39 37 42 36 3 38 5 58 63 12 33 31 80 44 104 l23 44 -22 29 -22 30 25 25 25 25 30 -22 29 -22 44 23 c24 13 71 32 104 44 58 20 60 22 63 58 3 36 4 37 42 37 38 0 39 -1 42 -37z m-119 -1369 c3 -34 13 -55 36 -78 l31 -31 210 0 210 0 31 31 c23 23 33 44 36 78 l6 46 427 0 c366 0 429 -2 440 -15 8 -10 11 -39 8 -85 -3 -63 -7 -73 -36 -103 l-32 -32 -1090 0 -1090 0 -32 32 c-29 30 -33 40 -36 103 -3 46 0 75 8 85 11 13 74 15 440 15 l427 0 6 -46z m477 18 c0 -49 -10 -52 -200 -52 -190 0 -200 3 -200 52 l0 28 200 0 200 0 0 -28z" style="paint-order: stroke; fill: rgb(48, 65, 155);"/>
    <path d="M980 1544 c-227 -82 -293 -362 -125 -529 65 -66 125 -90 225 -90 100 0 160 24 225 90 66 65 90 125 90 225 0 100 -24 160 -90 225 -82 82 -222 116 -325 79z m67 -91 c-25 -26 -28 -26 -44 -11 -16 16 -15 18 8 27 13 5 33 10 44 10 18 1 17 -2 -8 -26z m141 0 c40 -19 55 -38 21 -28 -33 10 -99 44 -99 51 0 7 35 -4 78 -23z m-223 -83 c21 -22 46 -40 54 -40 8 0 29 13 46 29 l30 28 53 -23 c50 -23 52 -25 52 -62 0 -50 14 -62 72 -62 54 0 56 -5 36 -74 -8 -26 -31 -60 -63 -91 -101 -102 -229 -102 -330 0 -70 69 -92 152 -64 236 13 36 55 99 67 99 5 0 26 -18 47 -40z m335 -36 c0 -8 -4 -14 -10 -14 -5 0 -10 9 -10 21 0 11 5 17 10 14 6 -3 10 -13 10 -21z" style="fill: rgba(0, 0, 0, 0);"/>
  </g>
</svg>